<?xml version="1.0" ?><!-- Uploaded to: SVG Repo, www.svgrepo.com, Generator: SVG Repo Mixer Tools -->
<svg width="800px" height="800px" viewBox="0 0 512 512" data-name="Слой 1" id="Слой_1" xmlns="http://www.w3.org/2000/svg"><defs><style>.cls-1{fill:#cdccd2;}.cls-2{fill:#ffffff;}.cls-3{fill:#2f74b7;}</style></defs><title/><circle class="cls-1" cx="256" cy="252.95" r="207.77"/><circle class="cls-2" cx="256" cy="253.36" r="194.41"/><path class="cls-3" d="M237.61,242.35s21.9-4.23,19.05-28.24c0,0-1.81-29.36-35.75-29.36L154,185.2V311.63l68.72-.77s37.54-.63,38.39-37.19C261.12,273.67,263.16,243.44,237.61,242.35ZM183.08,207.4c4.85-.23,21-0.92,34.62-0.26,2.21,0.12,5.93.35,8.77,3,3.6,3.37,3.73,8.62,3.64,10.91a13.28,13.28,0,0,1-3.51,10.67,12.76,12.76,0,0,1-8.28,3.63L183,235.13Q183,221.27,183.08,207.4Zm49,74.77c-4.88,6.89-13.89,6.65-14.51,6.62l-35.53.26V254.44l36.66,0.26a17.61,17.61,0,0,1,11.9,5.9,17.29,17.29,0,0,1,3.93,9.65A15.93,15.93,0,0,1,232,282.18Z"/><path class="cls-3" d="M358.42,272c1.13-13-3.07-28.84-3.07-28.84-10.2-30.6-45.11-26.1-45.11-26.1-28.61-.2-38.92,26.05-38.92,26.05-11.45,29.64,1.6,50,1.6,50C286,318.33,319.29,315,319.29,315c39.51-1.42,39.13-33,39.13-33H335.66c-1.31,15-23.1,13-23.1,13-22.53-1.58-18.86-23-18.86-23h64.72ZM300,241.55a21.83,21.83,0,0,1,14.67-6.1c1,0,9.83.08,15.61,7.23,4.36,5.39,4.17,10.32,4.08,13.32H293.7A21.13,21.13,0,0,1,300,241.55Z"/><polygon class="cls-3" points="288 193 288 207.78 339 207.72 339 193 288 193"/></svg>